<?xml version="1.0" encoding="iso-8859-1"?>
<!-- Generator: Adobe Illustrator 19.0.0, SVG Export Plug-In . SVG Version: 6.00 Build 0)  -->
<svg version="1.1" id="Capa_1" xmlns="http://www.w3.org/2000/svg" xmlns:xlink="http://www.w3.org/1999/xlink" x="0px" y="0px"
	 viewBox="0 0 409.379 409.379" style="enable-background:new 0 0 409.379 409.379;" xml:space="preserve">
<g>
	<g>
		<path style="fill:#080808" d="M285.735,276.332c-1.207-2.154-3.487-3.487-5.953-3.487H129.596c-2.466,0-4.746,1.333-5.953,3.487
			c-1.207,2.154-1.161,4.794,0.126,6.9l75.093,122.88c1.239,2.029,3.446,3.267,5.827,3.267s4.588-1.237,5.827-3.267l75.093-122.88
			C286.896,281.126,286.942,278.486,285.735,276.332z M204.689,389.458l-62.92-102.96h125.839L204.689,389.458z"/>
	</g>
</g>
<g>
	<g>
		<path style="fill:#080808" d="M285.609,125.925L210.516,3.045c-2.48-4.06-9.173-4.06-11.653,0l-75.093,122.88c-1.287,2.106-1.333,4.746-0.126,6.9
			c1.207,2.154,3.487,3.487,5.953,3.487h150.187c2.466,0,4.746-1.333,5.953-3.487S286.896,128.031,285.609,125.925z M141.77,122.659
			l62.92-102.96l62.92,102.96H141.77z"/>
	</g>
</g>
<g>
	<g>
		<path style="fill:#080808" d="M204.689,170.445c-18.819,0-34.133,15.314-34.133,34.133c0,18.819,15.314,34.133,34.133,34.133
			s34.133-15.314,34.133-34.133C238.823,185.759,223.509,170.445,204.689,170.445z M204.689,225.059
			c-11.293,0-20.48-9.187-20.48-20.48c0-11.293,9.187-20.48,20.48-20.48s20.48,9.187,20.48,20.48
			C225.169,215.872,215.982,225.059,204.689,225.059z"/>
	</g>
</g>
<g>
</g>
<g>
</g>
<g>
</g>
<g>
</g>
<g>
</g>
<g>
</g>
<g>
</g>
<g>
</g>
<g>
</g>
<g>
</g>
<g>
</g>
<g>
</g>
<g>
</g>
<g>
</g>
<g>
</g>
</svg>
